{"title":"Eminem Ft. Nate Ruess - Headlights [Music Video] 1080p [Sbyky]","uid":10130725,"size":111026034,"categoryP":"video","categoryS":"music_videos","magnet":"?xt=urn:btih:7325c113cd172534412747dab8253c9347a862ca&amp;dn=Eminem+Ft.+Nate+Ruess+-+Headlights+%5BMusic+Video%5D+1080p+%5BSbyky%5D&amp;tr=udp%3A%2F%2Ftracker.openbittorrent.com%3A80&amp;tr=udp%3A%2F%2Fopen.demonii.com%3A1337&amp;tr=udp%3A%2F%2Ftracker.coppersurfer.tk%3A6969&amp;tr=udp%3A%2F%2Fexodus.desync.com%3A6969","seeders":7,"leechers":0,"uploader":"Sbyky","files":1,"time":1399878279,"description":"\n\nGeneral\nComplete name                            : Eminem Ft. Nate Ruess - Headlights [Music Video] 1080p [Sbyky].MP4\nFormat                                   : MPEG-4\nFormat profile                           : Base Media\nCodec ID                                 : isom\nFile size                                : 106 MiB\nDuration                                 : 4mn 10s\nOverall bit rate mode                    : Variable\nOverall bit rate                         : 3 547 Kbps\nEncoded date                             : UTC 2014-05-10 08:04:27\nTagged date                              : UTC 2014-05-10 08:04:27\n\nVideo\nID                                       : 1\nFormat                                   : AVC\nFormat/Info                              : Advanced Video Codec\nFormat profile                           : &lt;a class=&quot;__cf_email__&quot; href=&quot;/cdn-cgi/l/email-protection&quot; data-cfemail=&quot;743c1d131c3438405a44&quot;&gt;[email&amp;#160;protected]&lt;/a&gt;&lt;script cf-hash='f9e31' type=&quot;text/javascript&quot;&gt;\n/* &lt;![CDATA[ */!function(){try{var t=&quot;currentScript&quot;in document?document.currentScript:function(){for(var t=document.getElementsByTagName(&quot;script&quot;),e=t.length;e--;)if(t[e].getAttribute(&quot;cf-hash&quot;))return t[e]}();if(t&amp;&amp;t.previousSibling){var e,r,n,i,c=t.previousSibling,a=c.getAttribute(&quot;data-cfemail&quot;);if(a){for(e=&quot;&quot;,r=parseInt(a.substr(0,2),16),n=2;a.length-n;n+=2)i=parseInt(a.substr(n,2),16)^r,e+=String.fromCharCode(i);e=document.createTextNode(e),c.parentNode.replaceChild(e,c)}}}catch(u){}}();/* ]]&gt; */&lt;/script&gt;\nFormat settings, CABAC                   : Yes\nFormat settings, ReFrames                : 2 frames\nCodec ID                                 : avc1\nCodec ID/Info                            : Advanced Video Coding\nDuration                                 : 4mn 10s\nBit rate                                 : 3 417 Kbps\nWidth                                    : 1 920 pixels\nHeight                                   : 1 080 pixels\nDisplay aspect ratio                     : 16:9\nFrame rate mode                          : Variable\nFrame rate                               : 23.976 fps\nMinimum frame rate                       : 23.974 fps\nMaximum frame rate                       : 24.644 fps\nColor space                              : YUV\nChroma subsampling                       : 4:2:0\nBit depth                                : 8 bits\nScan type                                : Progressive\nBits/(Pixel*Frame)                       : 0.069\nStream size                              : 102 MiB (96%)\nEncoded date                             : UTC 2014-05-10 08:04:27\nTagged date                              : UTC 2014-05-10 08:04:27\n\nAudio\nID                                       : 2\nFormat                                   : AAC\nFormat/Info                              : Advanced Audio Codec\nFormat profile                           : LC\nCodec ID                                 : 40\nDuration                                 : 4mn 10s\nBit rate mode                            : Variable\nBit rate                                 : 126 Kbps\nChannel(s)                               : 2 channels\nChannel positions                        : Front: L R\nSampling rate                            : 44.1 KHz\nCompression mode                         : Lossy\nStream size                              : 3.75 MiB (4%)\nEncoded date                             : UTC 2014-05-10 08:04:18\nTagged date                              : UTC 2014-05-10 08:04:18\n\nShared By Sbyky\n","torrent":{"xt":"urn:btih:7325c113cd172534412747dab8253c9347a862ca","amp;dn":"Eminem+Ft.+Nate+Ruess+-+Headlights+%5BMusic+Video%5D+1080p+%5BSbyky%5D","amp;tr":["udp%3A%2F%2Ftracker.openbittorrent.com%3A80","udp%3A%2F%2Fopen.demonii.com%3A1337","udp%3A%2F%2Ftracker.coppersurfer.tk%3A6969","udp%3A%2F%2Fexodus.desync.com%3A6969"],"infoHash":"7325c113cd172534412747dab8253c9347a862ca","infoHashBuffer":{"type":"Buffer","data":[115,37,193,19,205,23,37,52,65,39,71,218,184,37,60,147,71,168,98,202]},"announce":[],"urlList":[]}}